<svg width="160" height="52" viewBox="0 0 160 52" fill="none" xmlns="http://www.w3.org/2000/svg">
<path d="M160 46.7873C160 49.6676 157.941 52 155.393 52H4.6132C2.06731 52 0 49.6676 0 46.7873V5.22014C0 2.34129 2.06731 0 4.6132 0H155.392C157.941 0 159.999 2.34129 159.999 5.22014V46.7873H160Z" fill="black"/>
<path d="M35.9667 26.6897C35.9306 22.7251 39.2126 20.7963 39.3625 20.7066C37.5046 17.9962 34.6229 17.6254 33.611 17.596C31.191 17.343 28.8446 19.0442 27.6118 19.0442C26.355 19.0442 24.4556 17.6214 22.4118 17.6642C19.7789 17.7044 17.3161 19.2289 15.9655 21.5954C13.1775 26.4207 15.2575 33.512 17.9264 37.4124C19.2623 39.3225 20.823 41.456 22.8668 41.3811C24.8652 41.2981 25.6121 40.1068 28.0254 40.1068C30.4146 40.1068 31.116 41.3811 33.2 41.3329C35.3457 41.2981 36.6962 39.4148 37.9852 37.486C39.5285 35.2963 40.1482 33.1399 40.1736 33.0288C40.1241 33.0128 36.0069 31.4427 35.9667 26.6897Z" fill="white"/>
<path d="M32.0302 15.0314C33.105 13.6862 33.8398 11.8578 33.6364 10C32.0797 10.0696 30.1335 11.0762 29.0132 12.3932C28.0227 13.551 27.1366 15.4504 27.3655 17.2373C29.1136 17.3671 30.9072 16.3552 32.0302 15.0314Z" fill="white"/>
<path d="M60.111 31.8651L58.727 27.59C58.5811 27.1536 58.3054 26.1257 57.9012 24.5061H57.8516C57.691 25.2034 57.4314 26.2301 57.0753 27.59L55.7154 31.8651H60.111ZM64.8962 38.6901H62.1027L60.5728 33.8809H55.2536L53.796 38.6901H51.0762L56.3458 22.3203H59.6011L64.8962 38.6901Z" fill="white"/>
<path d="M75.7759 32.74C75.7759 31.5916 75.5163 30.644 74.9983 29.8984C74.4307 29.1221 73.6705 28.7326 72.7148 28.7326C72.0683 28.7326 71.4807 28.9494 70.9547 29.3764C70.4286 29.8061 70.0846 30.3682 69.9227 31.0656C69.841 31.3895 69.8009 31.6559 69.8009 31.866V33.8336C69.8009 34.6916 70.0646 35.417 70.5906 36.0073C71.1166 36.5989 71.8006 36.8947 72.6425 36.8947C73.6303 36.8947 74.4 36.5133 74.9501 35.753C75.5002 34.9914 75.7759 33.9875 75.7759 32.74ZM78.4476 32.6437C78.4476 34.6514 77.9055 36.2375 76.82 37.4034C75.8482 38.4407 74.6422 38.9587 73.2007 38.9587C71.6467 38.9587 70.529 38.3992 69.8491 37.2829H69.8009V43.5002H67.1774V30.7738C67.1774 29.5116 67.1453 28.2159 67.0811 26.8868H69.3873L69.5332 28.758H69.5827C70.4567 27.3486 71.7845 26.6445 73.5661 26.6445C74.9581 26.6445 76.1199 27.1947 77.0515 28.2949C77.9818 29.3978 78.4476 30.8474 78.4476 32.6437Z" fill="white"/>
<path d="M89.3531 32.74C89.3531 31.5916 89.0934 30.644 88.5754 29.8984C88.0079 29.1221 87.249 28.7326 86.2919 28.7326C85.6441 28.7326 85.0578 28.9494 84.5318 29.3764C84.0058 29.8061 83.6618 30.3682 83.4998 31.0656C83.4195 31.3895 83.3794 31.6559 83.3794 31.866V33.8336C83.3794 34.6916 83.6417 35.417 84.1664 36.0073C84.6924 36.5989 85.3777 36.8947 86.221 36.8947C87.2075 36.8947 87.9771 36.5133 88.5272 35.753C89.0774 34.9914 89.3531 33.9875 89.3531 32.74ZM92.0247 32.6437C92.0247 34.6514 91.4813 36.2375 90.3958 37.4034C89.4254 38.4407 88.2194 38.9587 86.7778 38.9587C85.2238 38.9587 84.1062 38.3992 83.4262 37.2829H83.3794V43.5002H80.7559V30.7738C80.7559 29.5116 80.7225 28.2159 80.6582 26.8868H82.9658L83.1117 28.758H83.1599C84.0339 27.3486 85.3603 26.6445 87.1432 26.6445C88.5339 26.6445 89.6971 27.1947 90.6287 28.2949C91.5589 29.3978 92.0247 30.8474 92.0247 32.6437Z" fill="white"/>
<path d="M107.204 34.1018C107.204 35.4939 106.721 36.6263 105.751 37.5016C104.684 38.4573 103.2 38.9352 101.292 38.9352C99.5308 38.9352 98.1173 38.5938 97.0479 37.9139L97.6569 35.7281C98.808 36.4255 100.072 36.7735 101.447 36.7735C102.435 36.7735 103.204 36.55 103.756 36.1042C104.307 35.6585 104.581 35.0615 104.581 34.316C104.581 33.6508 104.355 33.0913 103.901 32.6375C103.449 32.1838 102.695 31.7622 101.643 31.3713C98.7759 30.3019 97.3437 28.7371 97.3437 26.6772C97.3437 25.3307 97.8456 24.2278 98.8508 23.3684C99.852 22.5091 101.188 22.0781 102.858 22.0781C104.348 22.0781 105.585 22.3378 106.573 22.8558L105.917 24.9934C104.995 24.4914 103.952 24.2398 102.783 24.2398C101.861 24.2398 101.14 24.4673 100.624 24.9211C100.187 25.3253 99.9685 25.8192 99.9685 26.4028C99.9685 27.0506 100.217 27.5847 100.719 28.005C101.157 28.3945 101.949 28.8148 103.101 29.2685C104.509 29.8361 105.545 30.4986 106.21 31.2589C106.872 32.0205 107.204 32.9695 107.204 34.1018Z" fill="white"/>
<path d="M115.875 28.8548H112.985V34.5876C112.985 36.0439 113.493 36.7734 114.515 36.7734C114.983 36.7734 115.373 36.7319 115.681 36.6516L115.751 38.6432C115.236 38.8373 114.556 38.935 113.713 38.935C112.677 38.935 111.867 38.6178 111.284 37.9874C110.703 37.3556 110.408 36.2955 110.408 34.8058V28.8548H108.686V26.8872H110.408V24.7255L112.985 23.9492V26.8872H115.875V28.8548Z" fill="white"/>
<path d="M126.196 32.7775C126.196 31.6893 125.964 30.7551 125.494 29.9761C124.942 29.0337 124.157 28.5639 123.138 28.5639C122.083 28.5639 121.284 29.0337 120.733 29.9761C120.263 30.7551 120.03 31.7041 120.03 32.8271C120.03 33.9152 120.263 34.8482 120.733 35.6272C121.3 36.5682 122.093 37.0393 123.114 37.0393C124.116 37.0393 124.902 36.5601 125.468 35.6031C125.954 34.808 126.196 33.8644 126.196 32.7775ZM128.919 32.6919C128.919 34.5055 128.4 35.9953 127.365 37.1611C126.278 38.3604 124.837 38.9587 123.04 38.9587C121.307 38.9587 119.928 38.3832 118.9 37.2347C117.872 36.085 117.358 34.634 117.358 32.8873C117.358 31.0576 117.887 29.5584 118.949 28.3939C120.007 27.2268 121.438 26.6445 123.234 26.6445C124.966 26.6445 126.36 27.2187 127.413 28.3699C128.417 29.4875 128.919 30.9277 128.919 32.6919Z" fill="white"/>
<path d="M137.443 29.1944C137.184 29.1462 136.907 29.1221 136.616 29.1221C135.694 29.1221 134.98 29.4701 134.479 30.1675C134.041 30.7818 133.823 31.5595 133.823 32.4978V38.691H131.201L131.225 30.6038C131.225 29.2426 131.191 28.0044 131.127 26.8868H133.412L133.507 29.1462H133.579C133.856 28.3699 134.292 27.7448 134.891 27.2763C135.476 26.8547 136.108 26.6445 136.787 26.6445C137.03 26.6445 137.248 26.6619 137.443 26.6927V29.1944Z" fill="white"/>
<path d="M146.671 31.5508C146.689 30.7745 146.518 30.1025 146.163 29.535C145.708 28.8069 145.012 28.4428 144.072 28.4428C143.214 28.4428 142.518 28.7975 141.984 29.5122C141.546 30.0784 141.288 30.7584 141.208 31.5508H146.671ZM149.173 32.2321C149.173 32.7005 149.141 33.0981 149.077 33.4207H141.208C141.24 34.5878 141.619 35.4779 142.349 36.0936C143.012 36.6438 143.87 36.9195 144.922 36.9195C146.088 36.9195 147.149 36.7321 148.106 36.36L148.517 38.1817C147.4 38.6676 146.081 38.9112 144.559 38.9112C142.73 38.9112 141.292 38.3731 140.247 37.2943C139.204 36.2181 138.681 34.7739 138.681 32.9589C138.681 31.1787 139.167 29.697 140.138 28.5151C141.158 27.2515 142.534 26.6211 144.268 26.6211C145.967 26.6211 147.255 27.2515 148.13 28.5151C148.824 29.5189 149.173 30.7584 149.173 32.2321Z" fill="white"/>
<path d="M57.8837 12.2852C57.8837 11.3456 57.6348 10.6255 57.1382 10.1249C56.6403 9.62292 55.9148 9.37262 54.9605 9.37262C54.5536 9.37262 54.2082 9.40073 53.9218 9.45694V15.4708C54.0811 15.4949 54.3715 15.5056 54.7931 15.5056C55.7796 15.5056 56.5412 15.2312 57.078 14.6824C57.6147 14.1337 57.8837 13.3346 57.8837 12.2852ZM59.2437 12.249C59.2437 13.6973 58.81 14.7868 57.9426 15.519C57.1395 16.1936 55.9978 16.5322 54.5188 16.5322C53.7866 16.5322 53.1575 16.5001 52.6328 16.4372V8.52535C53.3181 8.41425 54.057 8.35938 54.8534 8.35938C56.2601 8.35938 57.3229 8.66455 58.039 9.27758C58.8408 9.96959 59.2437 10.9601 59.2437 12.249Z" fill="white"/>
<path d="M65.1126 13.5559C65.1126 13.0219 64.9975 12.5628 64.7673 12.18C64.4969 11.7168 64.1114 11.4853 63.6095 11.4853C63.0928 11.4853 62.6979 11.7168 62.4276 12.18C62.1973 12.5628 62.0822 13.0299 62.0822 13.5787C62.0822 14.1141 62.1973 14.5732 62.4276 14.956C62.7073 15.4191 63.0955 15.6493 63.5974 15.6493C64.09 15.6493 64.4768 15.4138 64.7552 14.9439C64.9935 14.5531 65.1126 14.09 65.1126 13.5559ZM66.4498 13.5144C66.4498 14.4045 66.1954 15.1367 65.6855 15.7096C65.1527 16.2985 64.4447 16.593 63.5626 16.593C62.71 16.593 62.0327 16.3106 61.5268 15.7457C61.0221 15.1809 60.7705 14.4688 60.7705 13.6095C60.7705 12.71 61.0302 11.9752 61.5509 11.4023C62.0729 10.8294 62.7742 10.543 63.6576 10.543C64.5089 10.543 65.1916 10.8254 65.7096 11.3902C66.2021 11.939 66.4498 12.6471 66.4498 13.5144Z" fill="white"/>
<path d="M76.1133 10.6602L74.2996 16.4599H73.1191L72.3668 13.9408C72.1754 13.3131 72.0215 12.688 71.901 12.0683H71.8783C71.7672 12.704 71.6119 13.3291 71.4125 13.9408L70.6134 16.4599H69.4195L67.7129 10.6602H69.038L69.6939 13.4161C69.8531 14.0693 69.9843 14.689 70.0887 15.278H70.1115C70.2065 14.7934 70.3658 14.1764 70.5893 13.4282L71.4125 10.6602H72.4619L73.2503 13.3693C73.4417 14.0292 73.5956 14.6663 73.7147 15.278H73.7509C73.8392 14.681 73.969 14.0452 74.1444 13.3693L74.8484 10.6602H76.1133Z" fill="white"/>
<path d="M82.7971 16.4618H81.5081V13.141C81.5081 12.117 81.1186 11.6044 80.3396 11.6044C79.9568 11.6044 79.6476 11.7463 79.408 12.0274C79.1711 12.3084 79.0507 12.6404 79.0507 13.0219V16.4618H77.7617V12.3205C77.7617 11.8119 77.7456 11.2591 77.7148 10.6621H78.8472L78.9074 11.5683H78.9436C79.0935 11.2872 79.317 11.0529 79.6115 10.8682C79.9608 10.6514 80.3517 10.543 80.78 10.543C81.3221 10.543 81.7718 10.7183 82.1292 11.0677C82.5749 11.4973 82.7971 12.1385 82.7971 12.9884V16.4618Z" fill="white"/>
<path d="M86.3521 16.4606H85.0645V8H86.3521V16.4606Z" fill="white"/>
<path d="M92.6038 13.5559C92.6038 13.0219 92.4887 12.5628 92.2571 12.18C91.9881 11.7168 91.6013 11.4853 91.102 11.4853C90.5827 11.4853 90.1892 11.7168 89.9201 12.18C89.6899 12.5628 89.5734 13.0299 89.5734 13.5787C89.5734 14.1141 89.6899 14.5732 89.9201 14.956C90.1985 15.4191 90.588 15.6493 91.09 15.6493C91.5825 15.6493 91.9667 15.4138 92.2451 14.9439C92.486 14.5531 92.6038 14.09 92.6038 13.5559ZM93.9423 13.5144C93.9423 14.4045 93.6866 15.1367 93.178 15.7096C92.644 16.2985 91.9359 16.593 91.0538 16.593C90.2012 16.593 89.5239 16.3106 89.0193 15.7457C88.5147 15.1809 88.2617 14.4688 88.2617 13.6095C88.2617 12.71 88.5214 11.9752 89.0434 11.4023C89.5641 10.8294 90.2654 10.543 91.1475 10.543C92.0001 10.543 92.6828 10.8254 93.2021 11.3902C93.6947 11.939 93.9423 12.6471 93.9423 13.5144Z" fill="white"/>
<path d="M98.8425 14.4688V13.5733C97.421 13.5492 96.7102 13.9401 96.7102 14.7432C96.7102 15.0457 96.7905 15.2719 96.9565 15.4231C97.1225 15.5744 97.334 15.6493 97.5869 15.6493C97.8707 15.6493 98.1344 15.561 98.374 15.3816C98.6176 15.2023 98.7662 14.9734 98.821 14.695C98.8358 14.6321 98.8425 14.5558 98.8425 14.4688ZM100.181 16.4618H99.0232L98.9268 15.7926H98.8906C98.4945 16.3266 97.9296 16.593 97.1974 16.593C96.65 16.593 96.207 16.4176 95.8737 16.0669C95.5712 15.7497 95.4199 15.3562 95.4199 14.8864C95.4199 14.1783 95.7144 13.6376 96.3087 13.2628C96.9016 12.8894 97.7355 12.706 98.809 12.714V12.6069C98.809 11.844 98.4088 11.4612 97.6057 11.4612C97.0341 11.4612 96.5295 11.6044 96.0945 11.8908L95.8322 11.0436C96.3703 10.7103 97.0355 10.543 97.8225 10.543C99.3377 10.543 100.097 11.3421 100.097 12.9416V15.0778C100.097 15.6574 100.126 16.1191 100.181 16.4618Z" fill="white"/>
<path d="M106.171 14.0139V13.0475C106.171 12.8802 106.159 12.745 106.135 12.6419C106.062 12.3314 105.907 12.0717 105.669 11.8602C105.428 11.6501 105.14 11.5443 104.807 11.5443C104.326 11.5443 103.949 11.7344 103.672 12.1172C103.399 12.4987 103.258 12.9872 103.258 13.5842C103.258 14.1571 103.391 14.6229 103.656 14.9803C103.934 15.3617 104.312 15.5531 104.783 15.5531C105.206 15.5531 105.544 15.3939 105.801 15.0766C106.049 14.7822 106.171 14.4275 106.171 14.0139ZM107.507 16.4606H106.364L106.303 15.529H106.267C105.902 16.2371 105.279 16.5918 104.405 16.5918C103.707 16.5918 103.124 16.3174 102.664 15.7686C102.202 15.2199 101.971 14.5078 101.971 13.6324C101.971 12.6928 102.221 11.9338 102.723 11.3529C103.209 10.8122 103.804 10.5418 104.514 10.5418C105.292 10.5418 105.838 10.8042 106.147 11.3288H106.171V8H107.461V14.8973C107.461 15.4621 107.476 15.9828 107.507 16.4606Z" fill="white"/>
<path d="M117.196 13.5559C117.196 13.0219 117.081 12.5628 116.851 12.18C116.579 11.7168 116.195 11.4853 115.693 11.4853C115.176 11.4853 114.781 11.7168 114.51 12.18C114.279 12.5628 114.164 13.0299 114.164 13.5787C114.164 14.1141 114.279 14.5732 114.51 14.956C114.789 15.4191 115.178 15.6493 115.681 15.6493C116.173 15.6493 116.56 15.4138 116.839 14.9439C117.077 14.5531 117.196 14.09 117.196 13.5559ZM118.532 13.5144C118.532 14.4045 118.277 15.1367 117.769 15.7096C117.235 16.2985 116.528 16.593 115.645 16.593C114.793 16.593 114.116 16.3106 113.609 15.7457C113.104 15.1809 112.853 14.4688 112.853 13.6095C112.853 12.71 113.112 11.9752 113.633 11.4023C114.155 10.8294 114.856 10.543 115.741 10.543C116.591 10.543 117.276 10.8254 117.792 11.3902C118.284 11.939 118.532 12.6471 118.532 13.5144Z" fill="white"/>
<path d="M125.464 16.4618H124.176V13.141C124.176 12.117 123.787 11.6044 123.005 11.6044C122.623 11.6044 122.314 11.7463 122.076 12.0274C121.838 12.3084 121.717 12.6404 121.717 13.0219V16.4618H120.428V12.3205C120.428 11.8119 120.414 11.2591 120.383 10.6621H121.514L121.574 11.5683H121.61C121.761 11.2872 121.985 11.0529 122.278 10.8682C122.629 10.6514 123.017 10.543 123.448 10.543C123.989 10.543 124.437 10.7183 124.796 11.0677C125.243 11.4973 125.464 12.1385 125.464 12.9884V16.4618Z" fill="white"/>
<path d="M134.138 11.628H132.72V14.4442C132.72 15.1603 132.971 15.5191 133.47 15.5191C133.702 15.5191 133.893 15.499 134.046 15.4588L134.079 16.4373C133.824 16.5323 133.491 16.5805 133.077 16.5805C132.568 16.5805 132.171 16.4252 131.886 16.1147C131.597 15.8042 131.455 15.2835 131.455 14.5513V11.628H130.607V10.6617H131.455V9.60022L132.72 9.21875V10.6617H134.138V11.628Z" fill="white"/>
<path d="M140.965 16.4606H139.675V13.1626C139.675 12.1226 139.285 11.6032 138.508 11.6032C137.909 11.6032 137.501 11.9057 137.278 12.5081C137.239 12.6352 137.217 12.7905 137.217 12.9725V16.4606H135.93V8H137.217V11.4948H137.241C137.647 10.8604 138.229 10.5418 138.983 10.5418C139.517 10.5418 139.959 10.7172 140.309 11.0665C140.747 11.5042 140.965 12.152 140.965 13.0113V16.4606Z" fill="white"/>
<path d="M146.775 12.9539C146.784 12.5725 146.701 12.2418 146.526 11.9634C146.302 11.6047 145.961 11.4267 145.499 11.4267C145.079 11.4267 144.735 11.6007 144.474 11.9514C144.26 12.2298 144.133 12.5644 144.091 12.9539H146.775ZM148.005 13.2872C148.005 13.5188 147.989 13.7129 147.957 13.8721H144.091C144.108 14.445 144.293 14.8827 144.651 15.1852C144.978 15.4556 145.401 15.5908 145.918 15.5908C146.49 15.5908 147.01 15.4998 147.481 15.3164L147.684 16.2118C147.133 16.4501 146.487 16.5692 145.737 16.5692C144.839 16.5692 144.133 16.3042 143.62 15.7755C143.106 15.2468 142.852 14.536 142.852 13.6459C142.852 12.7706 143.09 12.0424 143.568 11.4615C144.068 10.8418 144.743 10.5312 145.595 10.5312C146.429 10.5312 147.064 10.8418 147.491 11.4615C147.835 11.9554 148.005 12.5644 148.005 13.2872Z" fill="white"/>
</svg>
