<svg width="160" height="52" viewBox="0 0 160 52" fill="none" xmlns="http://www.w3.org/2000/svg">
<path d="M155 52H5C2.25 52 0 49.66 0 46.8V5.2C0 2.34 2.25 0 5 0H155C157.75 0 160 2.34 160 5.2V46.8C160 49.66 157.75 52 155 52Z" fill="black"/>
<path fill-rule="evenodd" clip-rule="evenodd" d="M12.2505 24.4978V11.3748C12.2505 10.6249 12.8755 10 13.5005 10C14.1255 10 14.3755 10.125 14.7505 10.3749L38.8755 23.6229C39.3755 23.8729 39.6255 24.2478 39.6255 24.6228C39.6255 24.9977 39.3755 25.3726 38.8755 25.6226L14.7505 38.8706C14.5005 38.9956 14.1255 39.2455 13.5005 39.2455C12.8755 39.2455 12.2505 38.6206 12.2505 37.8707V24.4978Z" fill="#00D0FF"/>
<path fill-rule="evenodd" clip-rule="evenodd" d="M27.875 24.6228L13.25 10C13.375 10 13.375 10 13.5 10C14.125 10 14.375 10.125 14.75 10.3749L32.5 20.1234L27.875 24.6228Z" fill="#00F076"/>
<path fill-rule="evenodd" clip-rule="evenodd" d="M32.375 28.9966L27.875 24.4973L32.5 19.873L38.875 23.3725C39.375 23.6225 39.625 23.9974 39.625 24.3724C39.625 24.7473 39.375 25.1222 38.875 25.3722L32.375 28.9966Z" fill="#FFD300"/>
<path fill-rule="evenodd" clip-rule="evenodd" d="M13.375 38.9953L27.875 24.4976L32.375 28.9969L14.75 38.6204C14.375 38.8704 14.125 38.9953 13.375 38.9953C13.5 38.9953 13.5 38.9953 13.375 38.9953Z" fill="#F83547"/>
<path fill-rule="evenodd" clip-rule="evenodd" d="M88.875 42.37C88.25 41.8701 87.75 40.9952 87.5 40.4953L89.5 39.6204C89.625 39.8704 89.875 40.2453 90.125 40.6203C90.625 41.1202 91.375 41.6201 92.125 41.6201C92.875 41.6201 93.75 41.2452 94.25 40.6203C94.625 39.9954 94.875 39.3705 94.875 38.4956V37.7457C93.375 39.6204 90.25 39.3705 88.5 37.3708C86.625 35.3711 86.625 31.9966 88.5 29.9969C90.375 28.1222 93.125 27.8722 94.75 29.622V28.7471H96.875V38.1207C96.875 40.4953 96 41.8701 94.875 42.7449C94.125 43.3699 93 43.6198 92 43.6198C90.875 43.4948 89.75 43.1199 88.875 42.37ZM141.25 42.8699L143.375 37.8707L139.625 29.247H141.75L144.375 35.3711L147 29.247H149.125L143.375 42.8699H141.25ZM131.125 38.1207C130.5 37.4957 130.25 36.6209 130.25 35.746C130.25 34.9961 130.5 34.2462 131 33.7463C131.875 32.8715 133.125 32.4965 134.5 32.4965C135.375 32.4965 136.125 32.6215 136.75 32.9964C136.75 31.4967 135.5 30.8718 134.5 30.8718C133.625 30.8718 132.75 31.3717 132.375 32.2466L130.5 31.4967C130.875 30.6218 131.875 28.9971 134.375 28.9971C135.625 28.9971 136.875 29.372 137.625 30.2469C138.375 31.1217 138.625 32.1216 138.625 33.4964V38.7456H136.5V37.8707C136.25 38.2456 135.75 38.4956 135.375 38.7456C134.875 38.9955 134.25 39.1205 133.625 39.1205C132.875 38.9955 131.75 38.7456 131.125 38.1207ZM64.5 33.6213C64.5 31.1217 66.375 28.3721 69.75 28.3721C73 28.3721 75 31.1217 75 33.6213C75 36.121 73.125 38.8705 69.75 38.8705C66.375 38.8705 64.5 36.121 64.5 33.6213ZM75.75 33.6213C75.75 31.1217 77.625 28.3721 81 28.3721C84.25 28.3721 86.25 31.1217 86.25 33.6213C86.25 36.121 84.375 38.8705 81 38.8705C77.75 38.8705 75.75 36.121 75.75 33.6213ZM50.375 36.3709C47.25 33.2464 47.375 28.1222 50.5 24.8727C52.125 23.2479 54.125 22.498 56.25 22.498C58.25 22.498 60.25 23.2479 61.75 24.7477L60.25 26.3725C58 24.1228 54.375 24.2478 52.25 26.4974C50 28.8721 50 32.4965 52.25 34.8712C54.5 37.2458 58.25 37.3708 60.5 34.9961C61.25 34.2462 61.5 33.2464 61.625 32.2466H56.375V29.9969H63.75C63.875 30.4968 63.875 31.1217 63.875 31.7466C63.875 33.6213 63.125 35.4961 61.875 36.7459C60.5 38.1207 58.5 38.8705 56.5 38.8705C54.25 38.7456 52 37.9957 50.375 36.3709ZM103.25 37.2458C101.375 35.2461 101.375 31.8716 103.25 29.7469C105.125 27.7472 108.25 27.7472 110 29.7469C110.625 30.3718 111 31.2467 111.375 32.1216L104.5 34.9961C104.875 35.871 105.75 36.6209 107 36.6209C108.125 36.6209 108.875 36.2459 109.625 35.1211L111.5 36.3709C111.25 36.6209 111 36.8708 110.875 37.1208C108.75 39.2455 105.125 39.2455 103.25 37.2458ZM116.25 38.7456V24.8727H120.75C123.375 24.8727 125.5 26.7474 125.5 28.9971C125.5 31.2467 123.625 33.1214 121.25 33.1214H118.5V38.6206H116.25V38.7456ZM126.75 38.7456V24.8727H128.875V38.7456H126.75ZM98.5 38.4956V22.998H100.75V38.4956H98.5ZM136.625 34.6212C136.125 34.2462 135.375 34.1213 134.625 34.1213C133.125 34.1213 132.25 34.8711 132.25 35.746C132.25 36.6209 133.125 37.1208 134 37.1208C135.25 37.1208 136.625 36.121 136.625 34.6212ZM72.625 33.6213C72.625 32.1216 71.625 30.4968 69.75 30.4968C67.875 30.4968 66.875 32.1216 66.875 33.6213C66.875 35.1211 67.875 36.7459 69.75 36.7459C71.5 36.7459 72.625 35.1211 72.625 33.6213ZM83.875 33.6213C83.875 32.1216 82.875 30.4968 81 30.4968C79.125 30.4968 78.125 32.1216 78.125 33.6213C78.125 35.1211 79.125 36.7459 81 36.7459C82.875 36.7459 83.875 35.1211 83.875 33.6213ZM95 34.4962C95 34.3712 95 34.2462 95.125 34.1213C95.125 33.9963 95.125 33.7463 95.125 33.6213C95.125 33.4964 95.125 33.2464 95.125 33.1214V32.9964C95.125 32.8715 95 32.6215 95 32.4965C94.625 31.2467 93.5 30.3718 92.375 30.3718C90.875 30.3718 89.625 31.8716 89.625 33.4964C89.625 35.2461 90.875 36.6209 92.5 36.6209C93.5 36.7459 94.5 35.871 95 34.4962ZM104.125 33.3714L108.75 31.3717C108.25 30.4968 107.5 30.2469 106.875 30.2469C105 30.3718 103.875 32.3715 104.125 33.3714ZM123.25 29.122C123.25 27.8722 122.25 26.9974 120.875 26.9974H118.375V31.3717H121C122.25 31.3717 123.25 30.3718 123.25 29.122Z" fill="white"/>
<path fill-rule="evenodd" clip-rule="evenodd" d="M142.875 40.3701H142.75V40.2451H142.875H142.75V40.3701H142.875Z" fill="white"/>
<path fill-rule="evenodd" clip-rule="evenodd" d="M143.25 40.2451H143.125H143.25V40.3701V40.2451Z" fill="white"/>
<path d="M48.625 12.6244C48.625 10.3748 50.25 9 52.25 9C53.625 9 54.5 9.6249 55.125 10.4998L54.125 11.1247C53.75 10.6248 53.125 10.2498 52.25 10.2498C50.875 10.2498 49.875 11.2497 49.875 12.7494C49.875 14.2492 50.875 15.249 52.25 15.249C53 15.249 53.625 14.8741 53.875 14.6241V13.4993H51.875V12.3745H55.25V14.9991C54.625 15.749 53.625 16.2489 52.375 16.2489C50.25 16.2489 48.625 14.7491 48.625 12.6244Z" fill="white"/>
<path d="M56.75 16.1239V9.125H61.4993V10.2498H57.8748V11.9996H61.3743V13.1244H57.8748V15.1241H61.4993V16.2489L56.75 16.1239Z" fill="white"/>
<path d="M64.9997 16.1239V10.2498H62.875V9.125H68.3742V10.2498H66.2495V16.1239H64.9997Z" fill="white"/>
<path d="M72.625 16.1239V9.125H73.8748V16.1239H72.625Z" fill="white"/>
<path d="M77.2497 16.1239V10.2498H75.125V9.125H80.6242V10.2498H78.4995V16.1239H77.2497Z" fill="white"/>
<path d="M84.625 12.6244C84.625 10.4998 86.125 9 88.25 9C90.375 9 91.875 10.4998 91.875 12.6244C91.875 14.7491 90.375 16.2489 88.25 16.2489C86.125 16.2489 84.625 14.6241 84.625 12.6244ZM90.5 12.6244C90.5 11.1247 89.625 10.1248 88.125 10.1248C86.75 10.1248 85.75 11.2497 85.75 12.6244C85.75 14.1242 86.625 15.1241 88.125 15.1241C89.625 15.1241 90.5 13.9992 90.5 12.6244Z" fill="white"/>
<path d="M98.1243 16.1239L94.4998 11.1247V16.1239H93.25V9.125H94.4998L98.1243 13.9993V9.125H99.3741V16.1239H98.1243Z" fill="white"/>
</svg>
