<svg width="144" height="34" viewBox="0 0 144 34" fill="none" xmlns="http://www.w3.org/2000/svg">
<path fill-rule="evenodd" clip-rule="evenodd" d="M0 8.76123H20.8353V14.8614L10.4177 26.8389H20.8353V33.3364H0V26.8882L10.4177 14.8614H0V8.76123Z" fill="#03168C"/>
<path fill-rule="evenodd" clip-rule="evenodd" d="M82.4175 8.4292H103.714V14.6643L93.0656 26.9068H103.714V33.5481H82.4175V26.9573L93.0656 14.6643H82.4175V8.4292Z" fill="#03168C"/>
<path d="M36.7262 7.74268C44.1025 7.74268 50.0822 13.5819 50.0822 20.7849C50.0822 27.988 44.1025 33.8272 36.7262 33.8272C29.3498 33.8272 23.3701 27.988 23.3701 20.7849C23.3701 13.5819 29.3498 7.74268 36.7262 7.74268ZM36.7262 14.6759C33.2518 14.6759 30.4453 17.4165 30.4453 20.7849C30.4453 24.1534 33.2518 26.8939 36.7262 26.8939C40.2006 26.8939 43.0071 24.1534 43.0071 20.7849C43.0071 17.4165 40.2006 14.6759 36.7262 14.6759Z" fill="#03168C"/>
<path d="M65.5465 7.74268C72.9228 7.74268 78.9025 13.5819 78.9025 20.7849C78.9025 27.988 72.9228 33.8272 65.5465 33.8272C58.1701 33.8272 52.1904 27.988 52.1904 20.7849C52.1904 13.5819 58.1701 7.74268 65.5465 7.74268ZM65.5465 14.6759C62.0721 14.6759 59.2656 17.4165 59.2656 20.7849C59.2656 24.1534 62.0721 26.8939 65.5465 26.8939C69.0209 26.8939 71.8274 24.1534 71.8274 20.7849C71.8274 17.4165 69.0209 14.6759 65.5465 14.6759Z" fill="#03168C"/>
<path d="M114.753 0H107.021V33.6353H114.753V0Z" fill="#03168C"/>
<path d="M132.439 33.698C134.434 33.698 136.361 33.2839 138.22 32.4558C140.079 31.6277 141.617 30.4517 142.834 28.9279L137.51 25.1019C136.868 25.9632 136.116 26.6671 135.254 27.2137C134.392 27.7602 133.335 28.0335 132.084 28.0335C130.597 28.0335 129.346 27.6112 128.332 26.7665C127.318 25.9218 126.659 24.7872 126.355 23.3628H144V21.0275C144 19.1062 143.73 17.3671 143.189 15.8102C142.648 14.2533 141.879 12.92 140.882 11.8103C139.885 10.7006 138.668 9.84759 137.231 9.25132C135.794 8.65506 134.197 8.35693 132.439 8.35693C130.546 8.35693 128.763 8.65506 127.09 9.25132C125.417 9.84759 123.963 10.7006 122.729 11.8103C121.496 12.92 120.524 14.2533 119.814 15.8102C119.104 17.3671 118.749 19.1062 118.749 21.0275C118.749 22.9488 119.104 24.6879 119.814 26.2448C120.524 27.8017 121.496 29.135 122.729 30.2447C123.963 31.3544 125.417 32.2074 127.09 32.8036C128.763 33.3999 130.546 33.698 132.439 33.698ZM136.394 18.2946H126.355C126.389 17.6983 126.532 17.1269 126.786 16.5804C127.039 16.0338 127.394 15.5535 127.851 15.1394C128.307 14.7253 128.856 14.3858 129.499 14.1208C130.141 13.8558 130.884 13.7233 131.73 13.7233C133.116 13.7233 134.248 14.1705 135.127 15.0649C136.006 15.9593 136.428 17.0358 136.394 18.2946Z" fill="#03168C"/>
</svg>
